<?xml version="1.0" encoding="UTF-8" standalone="no"?>
<!-- Created with Inkscape (http://www.inkscape.org/) -->

<svg
   width="64mm"
   height="64mm"
   viewBox="0 0 64 64"
   version="1.1"
   id="svg1"
   sodipodi:docname="waxing_crescent.svg"
   inkscape:version="1.4 (86a8ad7, 2024-10-11)"
   xmlns:inkscape="http://www.inkscape.org/namespaces/inkscape"
   xmlns:sodipodi="http://sodipodi.sourceforge.net/DTD/sodipodi-0.dtd"
   xmlns="http://www.w3.org/2000/svg"
   xmlns:svg="http://www.w3.org/2000/svg">
  <sodipodi:namedview
     id="namedview1"
     pagecolor="#505050"
     bordercolor="#eeeeee"
     borderopacity="1"
     inkscape:showpageshadow="0"
     inkscape:pageopacity="0"
     inkscape:pagecheckerboard="0"
     inkscape:deskcolor="#505050"
     inkscape:document-units="mm"
     inkscape:zoom="1.4488348"
     inkscape:cx="138.04196"
     inkscape:cy="158.40315"
     inkscape:window-width="1366"
     inkscape:window-height="705"
     inkscape:window-x="-8"
     inkscape:window-y="-8"
     inkscape:window-maximized="1"
     inkscape:current-layer="layer1" />
  <defs
     id="defs1" />
  <g
     inkscape:label="Layer 1"
     inkscape:groupmode="layer"
     id="layer1">
    <circle
       style="fill:#f5d801;fill-opacity:1;stroke-width:0.242847"
       id="path1"
       cx="32"
       cy="32.000015"
       r="32" />
    <path
       id="path2"
       style="fill:#322d31;fill-opacity:1;stroke-width:0.253908"
       d="M 32.000114 1.9998779 A 30 30 0 0 0 26.647469 2.5409302 A 30 30 0 0 0 26.646952 2.5409302 A 32 32 0 0 0 7.0000895 32.000114 A 32 32 0 0 0 26.644885 61.458264 A 30 30 0 0 0 26.645919 61.458781 A 30 30 0 0 0 32.000114 61.999833 A 30 30 0 0 0 61.999833 32.000114 A 30 30 0 0 0 32.000114 1.9998779 z M 26.646952 2.5409302 A 30 30 0 0 0 13.120646 8.7534709 A 30 30 0 0 1 26.646952 2.5409302 z M 13.120646 8.7534709 A 30 30 0 0 0 13.011092 8.8356364 A 30 30 0 0 1 13.120646 8.7534709 z M 13.011092 8.8356364 A 30 30 0 0 0 10.730094 10.951786 A 30 30 0 0 1 13.011092 8.8356364 z M 10.730094 10.951786 A 30 30 0 0 0 10.07432 11.60756 A 30 30 0 0 1 10.730094 10.951786 z M 10.07432 11.60756 A 30 30 0 0 0 8.2935506 13.735596 A 30 30 0 0 1 10.07432 11.60756 z M 8.2935506 13.735596 A 30 30 0 0 0 7.5235718 14.763957 A 30 30 0 0 1 8.2935506 13.735596 z M 7.5235718 14.763957 A 30 30 0 0 0 6.1386434 16.922481 A 30 30 0 0 1 7.5235718 14.763957 z M 6.1386434 16.922481 A 30 30 0 0 0 5.4131063 18.251082 A 30 30 0 0 1 6.1386434 16.922481 z M 5.4131063 18.251082 A 30 30 0 0 0 4.3826782 20.417875 A 30 30 0 0 1 5.4131063 18.251082 z M 4.3826782 20.417875 A 30 30 0 0 0 3.7739299 22.050334 A 30 30 0 0 1 4.3826782 20.417875 z M 3.7739299 22.050334 A 30 30 0 0 0 3.0866333 24.138062 A 30 30 0 0 1 3.7739299 22.050334 z M 3.0866333 24.138062 A 30 30 0 0 0 2.6360148 26.210803 A 30 30 0 0 1 3.0866333 24.138062 z M 2.6360148 26.210803 A 30 30 0 0 0 2.2840983 28.026713 A 30 30 0 0 1 2.6360148 26.210803 z M 2.2840983 28.026713 A 30 30 0 0 0 1.9998779 32.000114 A 30 30 0 0 1 2.2840983 28.026713 z M 1.9998779 32.000114 A 30 30 0 0 0 2.2840983 35.973515 A 30 30 0 0 1 1.9998779 32.000114 z M 2.2840983 35.973515 A 30 30 0 0 0 2.6360148 37.789941 A 30 30 0 0 1 2.2840983 35.973515 z M 2.6360148 37.789941 A 30 30 0 0 0 3.0866333 39.861133 A 30 30 0 0 1 2.6360148 37.789941 z M 3.0866333 39.861133 A 30 30 0 0 0 3.7739299 41.949377 A 30 30 0 0 1 3.0866333 39.861133 z M 3.7739299 41.949377 A 30 30 0 0 0 4.3826782 43.581836 A 30 30 0 0 1 3.7739299 41.949377 z M 4.3826782 43.581836 A 30 30 0 0 0 5.4141398 45.750179 A 30 30 0 0 1 4.3826782 43.581836 z M 5.4141398 45.750179 A 30 30 0 0 0 6.1376099 47.075163 A 30 30 0 0 1 5.4141398 45.750179 z M 6.1376099 47.075163 A 30 30 0 0 0 7.5261556 49.239372 A 30 30 0 0 1 6.1376099 47.075163 z M 7.5261556 49.239372 A 30 30 0 0 0 8.29045 50.261015 A 30 30 0 0 1 7.5261556 49.239372 z M 8.29045 50.261015 A 30 30 0 0 0 10.07432 52.392668 A 30 30 0 0 1 8.29045 50.261015 z M 10.07432 52.392668 A 30 30 0 0 0 10.729578 53.047925 A 30 30 0 0 1 10.07432 52.392668 z M 10.729578 53.047925 A 30 30 0 0 0 13.011609 55.164591 A 30 30 0 0 1 10.729578 53.047925 z M 13.011609 55.164591 A 30 30 0 0 0 13.115995 55.242623 A 30 30 0 0 1 13.011609 55.164591 z M 13.115995 55.242623 A 30 30 0 0 0 26.638684 61.457231 A 30 30 0 0 1 13.115995 55.242623 z " />
  </g>
</svg>
